# xmcd
#
# Track frame offsets:
#	150
#	14652
#	30272
#	43610
#	57385
#	70522
#	84277
#	99117
#	114520
#	127580
#	138795
#	151667
#	166570
#	181395
#	196425
#	210815
#	224357
#	236985
#
# Disc length: 3353 seconds
#
# Revision: 0
# Processed by: cddbd v1.5PL3 Copyright (c) Steve Scherf et al.
# Submitted via: dBpowerAMP V4.0
#
DISCID=d70d1712
DTITLE=Jelly Roll Morton - Doctor Jazz
DYEAR=1994
DGENRE=Blues
TTITLE0=Black Bottom Stomp
TTITLE1=Doctor Jazz
TTITLE2=Grandpa's Spells
TTITLE3=Original Jelly-Roll Blues
TTITLE4=Cannon Ball Blues
TTITLE5=Wild Man Blues
TTITLE6=Beale Street Blues
TTITLE7=Wolverine Blues
TTITLE8=Mr. Jelly Lord
TTITLE9=Georgia Swing
TTITLE10=Kansas City Stomp
TTITLE11=Show Shiner's Drag
TTITLE12=Boogaboo
TTITLE13=Shreveport Stomp
TTITLE14=Turtle Twist
TTITLE15=Oh, Don't He Ramble?
TTITLE16=High Society
TTITLE17=I Thought I Heard Buddy Day
EXTD=
EXTT0=
EXTT1=
EXTT2=
EXTT3=
EXTT4=
EXTT5=
EXTT6=
EXTT7=
EXTT8=
EXTT9=
EXTT10=
EXTT11=
EXTT12=
EXTT13=
EXTT14=
EXTT15=
EXTT16=
EXTT17=
PLAYORDER=
